<?xml version="1.0" encoding="UTF-8" standalone="no"?>
<!-- Created with Inkscape (http://www.inkscape.org/) -->

<svg
   version="1.1"
   id="svg1"
   width="250"
   height="250"
   viewBox="0 0 250 250"
   sodipodi:docname="magpie.svg"
   inkscape:version="1.4.3 (0d15f75, 2025-12-25)"
   xmlns:inkscape="http://www.inkscape.org/namespaces/inkscape"
   xmlns:sodipodi="http://sodipodi.sourceforge.net/DTD/sodipodi-0.dtd"
   xmlns="http://www.w3.org/2000/svg"
   xmlns:svg="http://www.w3.org/2000/svg"
   xmlns:rdf="http://www.w3.org/1999/02/22-rdf-syntax-ns#"
   xmlns:cc="http://creativecommons.org/ns#"
   xmlns:dc="http://purl.org/dc/elements/1.1/">
  <defs
     id="defs1" />
  <sodipodi:namedview
     id="namedview1"
     pagecolor="#ffffff"
     bordercolor="#000000"
     borderopacity="0.25"
     inkscape:showpageshadow="2"
     inkscape:pageopacity="0.0"
     inkscape:pagecheckerboard="0"
     inkscape:deskcolor="#d1d1d1"
     inkscape:zoom="1.2437864"
     inkscape:cx="152.35734"
     inkscape:cy="125.82546"
     inkscape:window-width="1426"
     inkscape:window-height="1056"
     inkscape:window-x="50"
     inkscape:window-y="33"
     inkscape:window-maximized="0"
     inkscape:current-layer="g1" />
  <g
     inkscape:groupmode="layer"
     inkscape:label="Image"
     id="g1"
     transform="translate(-136.7782,-234.95874)">
    <path
       style="fill:#000000;fill-opacity:1;stroke:#000000;stroke-width:1.24724;stroke-dasharray:none"
       d="m 381.13066,303.63809 -12.14632,-3.20846 -7.33362,0.22917 -5.04187,-2.29175 -13.32355,-2.06259 -7.02283,1.52262 -2.80038,3.74843 -5.27104,5.95857 -6.18775,5.72939 -11.00044,2.29176 -11.68796,5.04187 -9.85456,6.6461 -6.41693,3.20846 -20.62582,8.70868 -5.04187,2.97929 -13.29219,7.79197 -2.06259,3.20847 -96.94136,36.8973 -2.52094,5.27104 6.18775,0.45836 42.85588,-13.06303 43.5434,-13.29219 17.41736,-4.12517 17.18819,3.43764 3.66681,5.50022 1.26899,3.0787 1.02277,2.19234 -0.84977,16.55295 -3.00222,19.3204 -4.60608,1.56849 -6.45103,-0.89146 -4.11249,1.95116 0.94891,3.17135 5.40122,-0.0286 9.47047,-1.20237 7.68702,0.92332 7.06863,0.42308 -1.01257,-3.35932 -10.54209,-0.84416 2.07962,-25.15611 5.94153,-1.42829 3.23999,-1.22577 1.5727,-2.43758 3.89599,-1.37852 1.14588,-2.29175 h 7.10445 5.27105 l 5.27104,-2.52094 1.37505,-0.45835 3.89599,8.25033 6.41693,2.75011 17.41736,7.33363 0.9167,0.9167 -1.83341,1.37505 -4.58351,-0.9167 -4.58352,2.29176 v 2.52093 l 4.58352,0.68753 6.41692,-0.45835 4.12517,-1.60423 2.97928,-2.52094 4.81269,1.37506 2.75011,1.83341 10.54209,-5.7294 -1.83341,-2.75011 -7.10445,3.66681 -10.77126,-2.29175 -20.16747,-8.70869 -0.9167,-8.93785 -4.8127,-4.12517 2.97929,-6.6461 12.37549,-8.4795 5.95857,-7.10445 2.52094,-5.04187 5.04187,-6.87527 1.8334,-6.87528 1.03129,-9.16703 4.01058,-9.62538 7.33363,-3.43764 13.97972,-4.12517 3.27707,-1.65455 0.57102,-1.57031 z"
       id="path1"
       sodipodi:nodetypes="ccccccccccccccccccccccccccccccccccccccccccccccccccccccccccccccccccccccccccccccccccc" />
    <path
       style="fill:#ffffff;fill-opacity:1;stroke:#000000;stroke-width:1.24724;stroke-dasharray:none"
       d="m 289.02256,327.33528 4.44545,4.96236 h 13.43972 l 4.12039,2.70286 5.08066,-0.32506 4.03192,-4.85898 h 6.30633 l 2.3778,-2.79133 15.71415,2.89471 2.06765,14.68032 -2.3778,2.58456 -1.96427,-12.71605 -8.47737,1.34397 -12.61267,3.51501 -1.55073,1.44736 -9.40781,-0.20677 -3.92854,-1.44735 -6.92663,0.31014 -5.78942,-2.58456 -3.30824,-2.27442 -5.37589,0.31015 -3.92854,-3.72177 z"
       id="path2"
       sodipodi:nodetypes="ccccccccccccccccccccccc" />
    <path
       style="fill:#ffffff;fill-opacity:1;stroke:#000000;stroke-width:1.24724;stroke-dasharray:none"
       d="m 295.29276,382.7532 -4.97102,-11.55426 9.67333,-10.07639 4.97102,0.80611 10.47945,-2.68704 9.67334,-0.13435 6.71759,-3.09009 9.00158,-9.13593 2.55268,2.82139 -1.20916,2.55268 -5.77713,7.52371 -12.09167,8.32982 -3.3588,6.71759 -3.44835,2.40343 -5.01582,1.89583 -6.58324,3.76185 z"
       id="path3"
       sodipodi:nodetypes="ccccccccccccccccc" />
    <path
       style="fill:#323232;fill-opacity:1;stroke:#000000;stroke-width:1.24724;stroke-dasharray:none"
       d="m 368.95518,300.50536 -2.28478,3.83659 -6.36314,1.87976 0.3481,2.68781 7.10131,-1.81014 5.15194,-1.53166 7.97147,-0.20387 -0.0597,-1.81513 z"
       id="path4"
       sodipodi:nodetypes="ccccccccc" />
  </g>
  <metadata
     id="metadata4">
    <rdf:RDF>
      <cc:Work
         rdf:about="">
        <dc:creator>
          <cc:Agent>
            <dc:title>tw</dc:title>
          </cc:Agent>
        </dc:creator>
      </cc:Work>
    </rdf:RDF>
  </metadata>
</svg>
